<!-- Generated by IcoMoon.io -->
<svg version="1.1" xmlns="http://www.w3.org/2000/svg" width="32" height="32" viewBox="0 0 32 32">
<title>snowflake</title>
<path d="M12.973 19.32l2.32-2.32h-5.63c-0.024 0.061-0.060 0.118-0.108 0.166l-1.421 1.421c-0.198 0.198-0.509 0.192-0.704-0.003-0.19-0.19-0.197-0.51-0.003-0.704l0.88-0.88h-0.799c-0.282 0-0.508-0.224-0.508-0.5 0-0.268 0.228-0.5 0.508-0.5h0.753l-0.834-0.834c-0.193-0.193-0.186-0.514 0.003-0.704 0.195-0.195 0.506-0.201 0.704-0.003l1.421 1.421c0.036 0.036 0.065 0.077 0.088 0.12v0h5.65l-2.307-2.307c-0.054 0.021-0.112 0.032-0.174 0.032h-2.009c-0.28 0-0.495-0.224-0.495-0.5 0-0.268 0.222-0.5 0.495-0.5h1.215l-0.823-0.823c-0.195-0.195-0.189-0.517 0.001-0.706 0.195-0.195 0.512-0.195 0.706-0.001l0.819 0.819v-1.208c0-0.274 0.232-0.495 0.5-0.495 0.276 0 0.5 0.216 0.5 0.495v2.009c0 0.059-0.011 0.116-0.031 0.168l2.308 2.308v-5.637c-0.047-0.023-0.090-0.053-0.129-0.092l-1.421-1.421c-0.198-0.198-0.192-0.509 0.003-0.704 0.19-0.19 0.51-0.197 0.704-0.003l0.843 0.843v-0.77c0-0.282 0.224-0.508 0.5-0.508 0.268 0 0.5 0.228 0.5 0.508v0.799l0.871-0.871c0.193-0.193 0.514-0.186 0.704 0.003 0.195 0.195 0.201 0.506 0.003 0.704l-1.421 1.421c-0.046 0.046-0.1 0.081-0.157 0.105v5.624l2.308-2.308c-0.016-0.048-0.025-0.1-0.025-0.154v-2.009c0-0.28 0.224-0.495 0.5-0.495 0.268 0 0.5 0.222 0.5 0.495v1.188l0.814-0.814c0.195-0.195 0.511-0.195 0.706 0.001 0.19 0.19 0.196 0.512 0.001 0.706l-0.838 0.838h1.235c0.274 0 0.495 0.232 0.495 0.5 0 0.276-0.216 0.5-0.495 0.5h-2.009c-0.067 0-0.13-0.014-0.188-0.038v0l-2.298 2.298h5.679c0.022-0.043 0.051-0.084 0.087-0.12l1.421-1.421c0.198-0.198 0.509-0.192 0.704 0.003 0.19 0.19 0.197 0.51 0.003 0.704l-0.834 0.834h0.724c0.282 0 0.508 0.224 0.508 0.5 0 0.268-0.228 0.5-0.508 0.5h-0.77l0.88 0.88c0.193 0.193 0.186 0.514-0.003 0.704-0.195 0.195-0.506 0.201-0.704 0.003l-1.421-1.421c-0.049-0.049-0.085-0.106-0.108-0.166v0h-5.658l2.324 2.324c0.046-0.015 0.095-0.023 0.146-0.023h2.009c0.28 0 0.495 0.224 0.495 0.5 0 0.268-0.222 0.5-0.495 0.5h-1.178l0.795 0.795c0.195 0.195 0.189 0.517-0.001 0.706-0.195 0.195-0.512 0.195-0.706 0.001l-0.829-0.829v1.245c0 0.274-0.232 0.495-0.5 0.495-0.276 0-0.5-0.216-0.5-0.495v-2.009c0-0.069 0.015-0.135 0.041-0.195l-2.309-2.309v5.671c0.057 0.024 0.111 0.058 0.157 0.105l1.421 1.421c0.198 0.198 0.192 0.509-0.003 0.704-0.19 0.19-0.51 0.197-0.704 0.003l-0.871-0.871v0.753c0 0.282-0.224 0.508-0.5 0.508-0.268 0-0.5-0.228-0.5-0.508v-0.724l-0.843 0.843c-0.193 0.193-0.514 0.186-0.704-0.003-0.195-0.195-0.201-0.506-0.003-0.704l1.421-1.421c0.039-0.039 0.082-0.069 0.129-0.092v-5.683l-2.322 2.322c0.019 0.052 0.030 0.108 0.030 0.166v2.009c0 0.28-0.224 0.495-0.5 0.495-0.268 0-0.5-0.222-0.5-0.495v-1.206l-0.804 0.804c-0.195 0.195-0.511 0.195-0.706-0.001-0.19-0.19-0.196-0.512-0.001-0.706l0.81-0.81h-1.218c-0.274 0-0.495-0.232-0.495-0.5 0-0.276 0.216-0.5 0.495-0.5h2.009c0.062 0 0.121 0.012 0.175 0.033v0z"></path>
</svg>
