<!-- Generated by IcoMoon.io -->
<svg version="1.1" xmlns="http://www.w3.org/2000/svg" width="36" height="32" viewBox="0 0 36 32">
<title>mountains</title>
<path d="M35.619 30.427l-9.8-14c-0.187-0.267-0.493-0.427-0.819-0.427s-0.632 0.159-0.819 0.427l-2.081 2.973-6.281-8.973c-0.187-0.267-0.493-0.427-0.819-0.427s-0.632 0.159-0.819 0.427l-14 20c-0.214 0.305-0.24 0.705-0.068 1.035s0.514 0.538 0.887 0.538h33.8c0.373 0 0.715-0.207 0.887-0.538s0.146-0.73-0.068-1.035zM15 12.744l5.079 7.256h-2.665l-1.707-1.707c-0.391-0.39-1.024-0.39-1.414 0l-1.707 1.707h-2.665l5.079-7.256zM29.521 30l-6.255-8.936 0.074 0.052 1.66-2.372 7.879 11.256h-3.359z"></path>
</svg>
