<!-- Generated by IcoMoon.io -->
<svg version="1.1" xmlns="http://www.w3.org/2000/svg" width="40" height="40" viewBox="0 0 40 40">
<title>rocket2</title>
<path d="M23.866 26.138c0 0 14.118-10.188 12.552-21.848-0.034-0.254-0.118-0.426-0.224-0.536-0.108-0.11-0.274-0.196-0.526-0.23-11.394-1.602-21.348 12.844-21.348 12.844-8.636-1.034-8.008 0.688-11.948 10.152-0.754 1.804 0.468 2.426 1.808 1.918 1.34-0.504 4.296-1.622 4.296-1.622l5.18 5.296c0 0-1.092 3.028-1.586 4.398-0.496 1.372 0.11 2.622 1.876 1.852 9.248-4.032 10.932-3.388 9.92-12.224zM25.884 14.306c-1.196-1.226-1.196-3.208 0-4.434 1.196-1.222 3.134-1.222 4.332 0 1.196 1.222 1.196 3.206 0 4.434-1.198 1.222-3.138 1.222-4.332 0z"></path>
</svg>
