<!-- Generated by IcoMoon.io -->
<svg version="1.1" xmlns="http://www.w3.org/2000/svg" width="32" height="32" viewBox="0 0 32 32">
<title>tree</title>
<path d="M27.773 26.364l-4.773-6.364h2c0 0 0.001 0 0.001 0 0.552 0 1-0.448 1-1 0-0.241-0.085-0.463-0.228-0.636l-4.773-6.364h2c0.384 0 0.735-0.22 0.901-0.567s0.12-0.758-0.12-1.058l-8-10c-0.19-0.237-0.477-0.375-0.781-0.375s-0.591 0.138-0.781 0.375l-8 10c-0.24 0.3-0.287 0.711-0.12 1.058s0.517 0.567 0.901 0.567h2l-4.8 6.4c-0.227 0.303-0.264 0.708-0.094 1.047s0.516 0.553 0.894 0.553h2l-4.8 6.4c-0.227 0.303-0.264 0.708-0.094 1.047s0.516 0.553 0.894 0.553h9v3c0 0.552 0.448 1 1 1h4c0.552 0 1-0.448 1-1v-3h9c0 0 0.001 0 0.001 0 0.552 0 1-0.448 1-1 0-0.241-0.085-0.463-0.228-0.636z"></path>
</svg>
