<svg xmlns:dc="http://purl.org/dc/elements/1.1/" xmlns:cc="http://creativecommons.org/ns#" xmlns:rdf="http://www.w3.org/1999/02/22-rdf-syntax-ns#" xmlns:svg="http://www.w3.org/2000/svg" xmlns="http://www.w3.org/2000/svg" xmlns:sodipodi="http://sodipodi.sourceforge.net/DTD/sodipodi-0.dtd" xmlns:inkscape="http://www.inkscape.org/namespaces/inkscape" version="1.1" x="0px" y="0px" viewBox="0 0 100 125"><g transform="translate(0,-952.36218)"><path style="font-size:medium;font-style:normal;font-variant:normal;font-weight:normal;font-stretch:normal;text-indent:0;text-align:start;text-decoration:none;line-height:normal;letter-spacing:normal;word-spacing:normal;text-transform:none;direction:ltr;block-progression:tb;writing-mode:lr-tb;text-anchor:start;baseline-shift:baseline;opacity:1;color:#000000;fill:#000000;fill-opacity:1;stroke:none;stroke-width:4;marker:none;visibility:visible;display:inline;overflow:visible;enable-background:accumulate;font-family:Sans;-inkscape-font-specification:Sans" d="M 42 27 C 37.120107 27 33.190069 28.45039 30.1875 30.875 C 27.184931 33.29961 25.102437 36.59858 23.4375 40.21875 C 21.358297 44.82624 19.898763 48.9947 17.90625 51.75 C 15.913737 54.5053 13.697634 56.03125 9 56.03125 A 2.0002 2.0002 0 1 0 9 60.03125 C 14.718826 60.03125 18.603728 57.58025 21.125 54.09375 C 23.646272 50.60715 25.106273 46.27923 27.09375 41.875 C 28.613409 38.57072 30.402038 35.83952 32.71875 33.96875 C 35.035462 32.09798 37.879893 31 42 31 C 44.138687 31 46.798488 31.46338 49.6875 32.1875 C 44.951734 34.83808 42 39.28128 42 44 C 42 49.518874 45.440389 55.076565 52.4375 57.34375 C 50.933648 60.318565 49.404661 63.095856 47.5625 65.125 C 45.362141 67.5487 42.892282 69 39 69 A 2.0002 2.0002 0 1 0 39 73 C 43.981619 73 47.764011 70.8263 50.5 67.8125 C 53.235989 64.7987 55.105295 61.0024 56.90625 57.375 C 58.707205 53.7476 60.456966 50.26765 62.625 47.84375 C 64.793034 45.41974 67.189759 44 71 44 C 73.666186 44 77.007342 44.51418 79.96875 45.625 C 75.727737 47.9155 73 52.143 73 57 C 73 60.8006 74.311137 64.64225 77.3125 67.46875 C 80.313863 70.29515 84.877714 72 91 72 A 2.0002 2.0002 0 1 0 91 68 C 85.605905 68 82.182042 66.5585 80.0625 64.5625 C 77.942958 62.5665 77 59.9098 77 57 C 77 52.4606 80.159664 48.83275 85.34375 47.96875 A 2.0002 2.0002 0 0 0 86.1875 44.375 C 81.620756 40.94994 75.553518 40 71 40 C 66.082215 40 62.351627 42.17395 59.65625 45.1875 C 57.412182 47.696425 55.780243 50.745167 54.25 53.78125 C 48.144121 52.135937 46 48.145538 46 44 C 46 39.81579 49.710026 35.15468 56.34375 33.96875 A 2.0002 2.0002 0 0 0 56.71875 30.125 C 51.020904 27.91313 46.064986 27 42 27 z " transform="translate(0,952.36218)"/></g><text x="0" y="115" fill="#000000" font-size="5px" font-weight="bold" font-family="'Helvetica Neue', Helvetica, Arial-Unicode, Arial, Sans-serif">Created by bezier master</text><text x="0" y="120" fill="#000000" font-size="5px" font-weight="bold" font-family="'Helvetica Neue', Helvetica, Arial-Unicode, Arial, Sans-serif">from the Noun Project</text></svg>